<svg width="343" height="342" viewBox="0 0 343 342" fill="none" xmlns="http://www.w3.org/2000/svg">
<path d="M174.543 48.8041C194.742 36.2744 240.797 100.902 204.37 138.258C196.269 146.565 193.866 141.485 183.268 143.232C177.299 144.214 174.869 131.618 148.023 139.506C130.374 144.692 132.957 120.476 107.924 126.127C53.2702 138.457 126.861 45.3712 174.55 48.8041H174.543Z" fill="black"/>
<path fill-rule="evenodd" clip-rule="evenodd" d="M178.972 48.6447C176.11 53.6048 168.567 54.7004 161.688 52.5623C154.318 50.2715 150.493 42.257 153.514 35.1589C155.347 30.8495 158.733 27.1378 163.793 25.159C168.853 23.1803 174.49 25.2985 177.04 30.0461C180.273 36.0686 181.429 44.4018 178.979 48.6514L178.972 48.6447Z" fill="black"/>
<path d="M186.701 101.838C187.298 98.8431 188.56 96.4793 190.16 94.9321C192.497 92.6745 195.592 92.077 198.44 93.6374C200.113 94.5537 201.661 96.2535 202.902 98.8298C201.813 99.9985 200.598 100.457 199.29 100.516C196.422 95.211 192.019 96.8046 190.698 102.143C189.264 102.515 187.936 102.303 186.701 101.831V101.838Z" fill="#FFF8F5"/>
<path d="M187.444 99.2282C188.121 97.4487 189.058 96.0012 190.16 94.9321C192.497 92.6745 195.591 92.077 198.44 93.6374C199.436 94.1818 200.385 95.0052 201.249 96.1207C199.934 96.7847 198.52 97.369 197.026 97.8537C195.293 96.7249 193.447 97.2495 192.125 98.9825C190.512 99.2083 188.931 99.288 187.438 99.2216L187.444 99.2282Z" fill="white" stroke="black" stroke-width="2.52" stroke-miterlimit="10"/>
<path fill-rule="evenodd" clip-rule="evenodd" d="M179.277 96.393C176.999 93.3983 166.163 90.0982 164.284 91.5723C163.773 101.878 161.727 115.463 159.589 120.735C165.373 122.581 176.847 121.917 181.86 120.609C179.191 115.616 178.759 100.211 179.277 96.3863V96.393Z" fill="white" stroke="#020202" stroke-width="2.52" stroke-miterlimit="10"/>
<path fill-rule="evenodd" clip-rule="evenodd" d="M190.333 76.9577C193.188 76.1675 196.189 78.0267 197.039 81.101C197.889 84.182 196.269 87.3161 193.414 88.0996C190.559 88.8897 187.557 87.0305 186.708 83.9562C185.858 80.8819 187.478 77.7412 190.333 76.9577Z" fill="white" stroke="#020202" stroke-width="2.52" stroke-miterlimit="10"/>
<path fill-rule="evenodd" clip-rule="evenodd" d="M164.278 91.5723C153.182 97.4022 149.311 75.6098 163.348 81.3932C166.867 75.9418 173.301 74.9126 173.899 65.0389C176.309 64.8729 178.666 64.9127 180.964 65.2182C186.256 65.9154 190.711 69.4678 192.677 74.4345C197.869 87.5551 191.913 100.994 183.46 103.836C177.551 105.828 171.024 100.782 164.271 91.579L164.278 91.5723Z" fill="white" stroke="#020202" stroke-width="2.52" stroke-miterlimit="10"/>
<path d="M157.458 85.5233C157.106 85.7291 156.661 85.6162 156.449 85.2643C156.243 84.9124 156.356 84.4675 156.708 84.255C156.841 84.1754 156.98 84.1023 157.119 84.0359C158.102 83.5578 159.178 83.3985 160.207 83.684C161.23 83.9629 162.179 84.6734 162.916 85.915C163.009 86.0678 163.095 86.2338 163.182 86.4064C163.301 86.6255 163.315 86.8978 163.182 87.1302C162.983 87.4821 162.531 87.6016 162.179 87.4024C161.741 87.1501 161.329 86.9841 160.944 86.8845C160.559 86.7849 160.194 86.765 159.868 86.7982C159.463 86.8446 159.105 86.5525 159.058 86.1474C159.012 85.7424 159.304 85.3838 159.709 85.3374C159.928 85.3108 160.147 85.3042 160.38 85.3174C160.2 85.2178 160.014 85.1382 159.822 85.085C159.158 84.8991 158.441 85.0186 157.763 85.344C157.664 85.3905 157.564 85.4436 157.458 85.51V85.5233Z" fill="black"/>
<path d="M163.66 91.9641C163.441 91.6188 163.547 91.1673 163.892 90.9548C164.237 90.7357 164.689 90.8419 164.901 91.1872C166.043 92.9999 167.425 94.8658 169.091 96.6453C170.758 98.4182 172.703 100.105 174.987 101.552C175.326 101.771 175.432 102.223 175.213 102.562C174.994 102.9 174.543 103.006 174.204 102.787C171.807 101.26 169.768 99.5005 168.029 97.6479C166.289 95.7954 164.855 93.8565 163.666 91.9707L163.66 91.9641Z" fill="black"/>
<path d="M146.436 101.605C148.448 98.7834 150.858 96.9175 153.229 96.0676C156.701 94.8126 160.181 95.636 162.405 98.5842C163.713 100.311 164.523 102.794 164.61 106.041C162.936 106.738 161.462 106.652 160.081 106.107C159.583 99.2814 154.278 98.8829 150.426 103.797C148.766 103.511 147.492 102.681 146.429 101.612L146.436 101.605Z" fill="#FFF8F5"/>
<path d="M148.421 99.2482C149.949 97.721 151.602 96.6519 153.235 96.0676C156.708 94.8126 160.187 95.636 162.412 98.5842C163.189 99.6134 163.786 100.902 164.165 102.462C162.498 102.542 160.759 102.488 158.986 102.289C157.717 100.311 155.559 99.9918 153.388 101.18C151.609 100.662 149.942 100.012 148.421 99.2482Z" fill="white" stroke="black" stroke-width="2.52" stroke-miterlimit="10"/>
<path fill-rule="evenodd" clip-rule="evenodd" d="M175.327 272.851L160.334 272.519L159.285 314.524C172.512 319.729 251.123 321.555 258.294 307.107C202.199 293.554 208.036 248.276 175.327 272.851Z" fill="white" stroke="black" stroke-width="2.52" stroke-miterlimit="10"/>
<path fill-rule="evenodd" clip-rule="evenodd" d="M237.125 315.925C248.002 314.158 256.202 311.33 258.294 307.107C249.469 304.975 242.172 302.054 236.023 298.747C235.359 300.978 235 303.368 235 305.852C235 309.471 235.764 312.89 237.125 315.925Z" fill="white" stroke="#231F20" stroke-width="2.52" stroke-miterlimit="10"/>
<path fill-rule="evenodd" clip-rule="evenodd" d="M187.637 313.82L186.588 271.815C191.003 269.332 245.312 250.746 246.773 247.267C242.61 238.708 241.494 227.4 213.679 220.236C352.628 170.555 346.014 304.982 187.637 313.813V313.82Z" fill="black"/>
<path fill-rule="evenodd" clip-rule="evenodd" d="M186.714 276.888L186.588 271.822C191.003 269.338 245.312 250.753 246.773 247.274C242.61 238.715 241.494 227.407 213.679 220.242C263.094 202.573 294.083 208.204 306.4 223.17C289.906 251.284 243.566 272.565 186.714 276.881V276.888Z" fill="#1C1B1B"/>
<path fill-rule="evenodd" clip-rule="evenodd" d="M162.319 311.615C171.097 301.104 223.586 274.352 220.333 258.05C215.512 233.861 149.125 221.331 130.507 227.168C26.2188 189.891 -8.16309 279.584 88.6215 306.396C108.15 311.808 131.45 312.678 162.312 311.615H162.319Z" fill="black"/>
<path fill-rule="evenodd" clip-rule="evenodd" d="M212.006 273.747C217.73 268.083 221.256 262.652 220.339 258.05C215.519 233.861 149.132 221.331 130.514 227.168C82.181 209.89 48.8747 219.897 36.6704 238.263C61.9489 261.789 110.096 277.692 165.347 277.692C181.655 277.692 197.338 276.304 212.006 273.747Z" fill="#1C1B1B"/>
<path fill-rule="evenodd" clip-rule="evenodd" d="M171.595 272.147L186.588 271.815L187.637 313.82C174.411 319.026 95.7996 320.852 88.6284 306.403C144.723 292.851 138.887 247.572 171.595 272.147Z" fill="white" stroke="black" stroke-width="2.52" stroke-miterlimit="10"/>
<path fill-rule="evenodd" clip-rule="evenodd" d="M109.797 315.221C98.9204 313.455 90.72 310.626 88.6284 306.403C97.453 304.271 104.75 301.35 110.899 298.043C111.563 300.274 111.922 302.665 111.922 305.148C111.922 308.767 111.158 312.186 109.797 315.221Z" fill="white" stroke="#231F20" stroke-width="2.52" stroke-miterlimit="10"/>
<path fill-rule="evenodd" clip-rule="evenodd" d="M135.407 278.588C147.1 266.463 153.355 258.442 171.595 272.147C167.366 278.375 159.311 282.585 150.068 282.585C144.577 282.585 139.511 281.098 135.407 278.588Z" fill="white" stroke="#231F20" stroke-width="2.52" stroke-miterlimit="10"/>
<path d="M188.195 271.171C187.817 271.324 187.392 271.144 187.239 270.766C187.086 270.388 187.266 269.963 187.644 269.81L255.14 242.28C255.518 242.128 255.943 242.307 256.096 242.685C256.249 243.064 256.069 243.489 255.691 243.642L188.195 271.171Z" fill="white"/>
<path d="M88.5682 246.955C88.1897 246.809 88.0038 246.384 88.1499 246.005C88.296 245.627 88.7209 245.441 89.0994 245.587L144.802 267.194C145.181 267.34 145.367 267.765 145.221 268.143C145.075 268.522 144.65 268.708 144.271 268.562L88.5682 246.955Z" fill="white"/>
<path fill-rule="evenodd" clip-rule="evenodd" d="M195.24 133.139C198.819 128.072 196.861 120.171 195.473 117.057C178.674 116.253 162.85 115.51 149.444 113.67C146.755 117.229 145.135 128.491 148.176 134.619C116.775 139.799 19.6721 225.295 113.529 246.65C279.568 297.758 322.31 186.956 195.234 133.132L195.24 133.139Z" fill="white" stroke="black" stroke-width="2.52" stroke-miterlimit="10"/>
<path d="M151.515 135.669C151.15 135.496 150.991 135.058 151.163 134.692C151.336 134.327 151.774 134.168 152.14 134.341C154.649 135.516 160.127 136.532 165.758 137.123C171.489 137.72 177.338 137.873 180.346 137.289C180.745 137.216 181.13 137.475 181.203 137.873C181.276 138.271 181.017 138.657 180.619 138.73C177.471 139.34 171.455 139.194 165.599 138.584C159.829 137.979 154.171 136.917 151.509 135.669H151.515Z" fill="black"/>
<path d="M130.029 161.817C130.089 161.418 130.467 161.14 130.865 161.199C131.264 161.259 131.543 161.638 131.483 162.036L123.17 220.793C123.11 221.192 122.731 221.471 122.333 221.411C122.014 221.364 121.775 221.112 121.722 220.813C121.556 220.209 120.779 218.456 120.547 217.865C118.316 212.188 113.382 207.972 107.592 205.555C101.769 203.131 95.1024 202.527 89.4252 204.087C88.7081 204.286 87.9976 204.519 87.2938 204.798C86.9153 204.944 86.4903 204.758 86.3442 204.379C86.1982 204.001 86.3841 203.576 86.7626 203.43C87.493 203.144 88.2566 202.892 89.0467 202.673C95.036 201.026 102.054 201.657 108.163 204.2C114.033 206.644 119.079 210.867 121.596 216.55L130.042 161.817H130.029Z" fill="black"/>
<path d="M208.699 166.691C208.62 166.292 208.872 165.907 209.27 165.821C209.669 165.741 210.054 165.993 210.14 166.392L219.483 211.418C219.562 211.816 219.31 212.201 218.912 212.288C218.513 212.374 218.128 212.115 218.042 211.716L208.699 166.691Z" fill="black"/>
<path fill-rule="evenodd" clip-rule="evenodd" d="M113.535 246.656L122.671 221.424L147.425 227.208L177.04 245.355C175.406 248.183 174.257 250.574 170.088 250.786C172.239 252.851 176.05 253.701 177.498 255.102C175.493 259.91 167.08 258.542 165.891 257.938C158.341 265.985 145.002 256.503 139.922 254.757C136.848 255.062 119.265 253.256 113.541 246.663L113.535 246.656Z" fill="white" stroke="black" stroke-width="2.52" stroke-miterlimit="10"/>
<path d="M144.855 245.361C144.517 245.142 144.411 244.691 144.63 244.352C144.849 244.013 145.3 243.907 145.639 244.126L166.276 257.32C166.615 257.539 166.721 257.991 166.502 258.329C166.283 258.668 165.831 258.774 165.493 258.555L144.855 245.361Z" fill="black"/>
<path d="M147.963 237.407C147.638 237.161 147.571 236.703 147.81 236.377C148.056 236.052 148.514 235.986 148.839 236.225C151.243 238.024 157.119 241.836 162.983 245.521C169.742 249.77 176.462 253.834 177.79 254.432C178.162 254.598 178.328 255.029 178.162 255.401C177.996 255.773 177.564 255.939 177.192 255.773C175.798 255.149 169.005 251.039 162.199 246.769C156.296 243.057 150.38 239.219 147.963 237.413V237.407Z" fill="black"/>
<path d="M151.827 230.767C151.482 230.554 151.369 230.103 151.582 229.757C151.794 229.412 152.246 229.299 152.591 229.512L177.425 244.724C177.77 244.936 177.883 245.388 177.67 245.733C177.458 246.078 177.006 246.191 176.661 245.979L151.827 230.767Z" fill="black"/>
<path fill-rule="evenodd" clip-rule="evenodd" d="M218.214 134.301C221.023 135.868 222.271 138.975 221.003 141.24C219.742 143.504 216.435 144.068 213.633 142.501C210.824 140.934 209.576 137.827 210.844 135.562C212.112 133.298 215.412 132.734 218.214 134.301Z" fill="white" stroke="black" stroke-width="2.52" stroke-miterlimit="10"/>
<path fill-rule="evenodd" clip-rule="evenodd" d="M233.095 139.367C228.692 137.229 216.74 136.233 210.107 137.382C206.422 138.019 208.268 145.224 210.386 145.841C208.806 148.245 208.739 152.368 210.884 155.456C209.682 157.713 210.247 162.308 212.405 164.294C214.656 172.102 218.54 172.408 222.882 172.726L222.657 244.286C264.861 243.323 255.584 194.406 241.82 160.708L233.101 139.36L233.095 139.367Z" fill="white" stroke="black" stroke-width="2.52" stroke-miterlimit="10"/>
<path d="M210.452 146.571C210.047 146.605 209.695 146.306 209.662 145.901C209.629 145.496 209.928 145.144 210.333 145.111C212.61 144.918 215.485 145.031 218.268 145.283C221.853 145.615 225.299 146.18 227.152 146.651C227.544 146.751 227.783 147.149 227.69 147.541C227.597 147.933 227.192 148.172 226.8 148.072C224.987 147.614 221.634 147.056 218.135 146.737C215.439 146.492 212.657 146.386 210.452 146.571Z" fill="black"/>
<path d="M210.944 156.166C210.539 156.199 210.187 155.901 210.154 155.496C210.121 155.091 210.419 154.739 210.825 154.705C213.062 154.513 215.718 154.626 218.288 154.885C221.714 155.223 224.974 155.828 226.86 156.306C227.252 156.405 227.491 156.804 227.398 157.195C227.298 157.587 226.9 157.826 226.508 157.733C224.669 157.268 221.482 156.684 218.148 156.352C215.672 156.106 213.102 155.994 210.951 156.18L210.944 156.166Z" fill="black"/>
<path d="M212.398 165.024C211.993 165.024 211.667 164.692 211.667 164.287C211.667 163.882 211.999 163.557 212.405 163.557C214.875 163.57 217.497 163.756 219.921 164.028C222.604 164.333 225.06 164.758 226.793 165.197C227.185 165.296 227.424 165.695 227.331 166.086C227.232 166.478 226.833 166.717 226.441 166.624C224.762 166.199 222.378 165.788 219.768 165.495C217.371 165.223 214.795 165.044 212.405 165.031L212.398 165.024Z" fill="black"/>
<path fill-rule="evenodd" clip-rule="evenodd" d="M202.531 181.923H307.947L270.936 260.501H165.526L202.531 181.923Z" fill="white"/>
<path d="M202.657 181.186H309.229L271.527 261.238H164.49C177.053 234.551 189.623 207.865 202.192 181.186H202.657ZM306.912 182.66H203.122L166.808 259.77H270.597L306.912 182.66Z" fill="black"/>
<path d="M135.5 261.238C135.095 261.238 134.763 260.906 134.763 260.501C134.763 260.096 135.095 259.764 135.5 259.764H270.942C271.348 259.764 271.68 260.096 271.68 260.501C271.68 260.906 271.348 261.238 270.942 261.238H135.5Z" fill="#1A1A1A"/>
<path d="M236.859 227.467C240.314 227.467 243.114 224.666 243.114 221.212C243.114 217.757 240.314 214.957 236.859 214.957C233.405 214.957 230.604 217.757 230.604 221.212C230.604 224.666 233.405 227.467 236.859 227.467Z" fill="black"/>
</svg>
